# xmcd
#
# Track frame offsets:
#	183
#	15995
#	30183
#	44608
#	57708
#	72108
#	88008
#	103108
#	116158
#	131358
#	144883
#	157483
#	169408
#	184608
#	199308
#	213783
#	227508
#	241008
#	254133
#	268758
#
# Disc length: 3759 seconds
#
# Revision: 0
# Processed by: cddbd v1.4PL0 Copyright (c) Steve Scherf et al.
# Submitted via: dBpowerAMP V4.0
#
DISCID=200ead14
DTITLE=Bessie Smith - Deja Vu - Modern Times
DYEAR=1900
DGENRE=Blues
TTITLE0=Careless Love Blues
TTITLE1=J.C. Holmes Blues
TTITLE2=He's Gone Blues
TTITLE3=Nobody's Blues but Mine
TTITLE4=I Ain't Got Nobody
TTITLE5=My Man Blues
TTITLE6=New Gulf Coast Blues
TTITLE7=I've Been Mistreated and I Don't Like It
TTITLE8=Lonesome Desert Blues
TTITLE9=Squeeze Me
TTITLE10=What's the Matter Now?
TTITLE11=I Want Every Bit of It
TTITLE12=Jazzbo Brown from Memphis Town
TTITLE13=The Gin House Blues
TTITLE14=Money Blues
TTITLE15=Baby Doll
TTITLE16=Bard Driving Papa
TTITLE17=Lost Your Head Blues
TTITLE18=Hard Time Blues
TTITLE19=One and Two Blues
EXTD=Bessie Smith\nDeja Vu - Recording Arts\nDVBC 909-2\nRecordings from 1925-6
EXTT0=
EXTT1=
EXTT2=
EXTT3=
EXTT4=
EXTT5=
EXTT6=
EXTT7=
EXTT8=
EXTT9=
EXTT10=
EXTT11=
EXTT12=
EXTT13=
EXTT14=
EXTT15=
EXTT16=
EXTT17=
EXTT18=
EXTT19=
PLAYORDER=
